<?xml version="1.0" encoding="UTF-8" standalone="no" ?>
<!DOCTYPE svg PUBLIC "-//W3C//DTD SVG 1.1//EN" "http://www.w3.org/Graphics/SVG/1.1/DTD/svg11.dtd">
<svg xmlns="http://www.w3.org/2000/svg" xmlns:xlink="http://www.w3.org/1999/xlink" version="1.1" width="1080" height="1080" viewBox="0 0 1080 1080" xml:space="preserve">
<desc>Created with Fabric.js 5.2.4</desc>
<defs>
</defs>
<g transform="matrix(1 0 0 1 540 540)" id="1ba98cd5-1d63-489e-80e9-0bead4a21766"  >
<rect style="stroke: none; stroke-width: 1; stroke-dasharray: none; stroke-linecap: butt; stroke-dashoffset: 0; stroke-linejoin: miter; stroke-miterlimit: 4; fill: rgb(255,255,255); fill-rule: nonzero; opacity: 1; visibility: hidden;" vector-effect="non-scaling-stroke"  x="-540" y="-540" rx="0" ry="0" width="1080" height="1080" />
</g>
<g transform="matrix(1 0 0 1 540 540)" id="2d5eb3d7-50bb-4298-b85c-25316ffb61e2"  >
</g>
<g transform="matrix(7.3 0 0 7.3 540 540)"  >
<g style=""   >
		<g transform="matrix(1 0 0 1 -52.44 -9.21)"  >
<path style="stroke: none; stroke-width: 1; stroke-dasharray: none; stroke-linecap: butt; stroke-dashoffset: 0; stroke-linejoin: miter; stroke-miterlimit: 4; fill: rgb(255,255,255); fill-rule: nonzero; opacity: 1;" vector-effect="non-scaling-stroke"  transform=" translate(-21.56, -3.79)" d="M 36.0068 0.611877 L 15.1632 0.611877 C 13.3076 0.620968 11.5082 1.25043 10.0509 2.40026 C 8.59364 3.55009 7.562 5.15436 7.11987 6.95822 L 31.6558 6.95822 L 36.0068 0.611877 Z" stroke-linecap="round" />
</g>
		<g transform="matrix(1 0 0 1 4.04 -9.21)"  >
<path style="stroke: none; stroke-width: 1; stroke-dasharray: none; stroke-linecap: butt; stroke-dashoffset: 0; stroke-linejoin: miter; stroke-miterlimit: 4; fill: rgb(255,255,255); fill-rule: nonzero; opacity: 1;" vector-effect="non-scaling-stroke"  transform=" translate(-78.04, -3.79)" d="M 92.5178 0.611877 L 71.6107 0.611877 C 69.7551 0.620968 67.9557 1.25043 66.4984 2.40026 C 65.0411 3.55009 64.0094 5.15436 63.5673 6.95822 L 90.2772 6.95822 L 92.5178 0.611877 Z" stroke-linecap="round" />
</g>
		<g transform="matrix(1 0 0 1 33.58 -9.22)"  >
<path style="stroke: none; stroke-width: 1; stroke-dasharray: none; stroke-linecap: butt; stroke-dashoffset: 0; stroke-linejoin: miter; stroke-miterlimit: 4; fill: rgb(255,255,255); fill-rule: nonzero; opacity: 1;" vector-effect="non-scaling-stroke"  transform=" translate(-107.58, -3.78)" d="M 122.021 0.611877 L 95.3703 0.611877 L 93.1298 6.95667 L 119.781 6.95667 L 122.021 0.611877 Z" stroke-linecap="round" />
</g>
		<g transform="matrix(1 0 0 1 -59.09 4.56)"  >
<path style="stroke: none; stroke-width: 1; stroke-dasharray: none; stroke-linecap: butt; stroke-dashoffset: 0; stroke-linejoin: miter; stroke-miterlimit: 4; fill: rgb(255,255,255); fill-rule: nonzero; opacity: 1;" vector-effect="non-scaling-stroke"  transform=" translate(-14.91, -17.56)" d="M 29.4385 18.162 C 29.4917 17.2754 29.4397 16.3857 29.2836 15.5115 C 29.2567 15.3533 29.2262 15.1982 29.1921 15.0462 C 28.9597 13.8823 28.4445 12.7936 27.6923 11.8761 C 27.4909 11.6404 27.2718 11.4206 27.0368 11.2185 C 26.555 10.8094 26.0163 10.4724 25.4378 10.2182 C 24.8772 9.97257 24.2917 9.78849 23.6915 9.66918 C 23.1172 9.55435 22.535 9.48332 21.9499 9.4567 C 21.7164 9.44533 21.4825 9.43964 21.248 9.43964 L 6.99277 9.43964 C 6.99277 16.8344 14.4659 16.8437 14.4659 16.8437 L 20.1664 16.8437 C 20.3292 16.8437 20.4904 16.8758 20.6408 16.9382 C 20.7912 17.0005 20.9278 17.0919 21.043 17.2071 C 21.1581 17.3223 21.2494 17.4591 21.3117 17.6096 C 21.374 17.7602 21.406 17.9215 21.406 18.0844 C 21.406 18.2474 21.374 18.4087 21.3117 18.5592 C 21.2494 18.7098 21.1581 18.8466 21.043 18.9618 C 20.9278 19.077 20.7912 19.1684 20.6408 19.2307 C 20.4904 19.2931 20.3292 19.3252 20.1664 19.3252 L 2.59845 19.3252 L 0.35791 25.6715 L 21.3642 25.6715 C 23.2079 25.6711 24.9965 25.0424 26.4356 23.8889 C 27.8748 22.7354 28.8786 21.1259 29.282 19.3252 C 29.3611 18.9415 29.4134 18.5529 29.4385 18.162 Z" stroke-linecap="round" />
</g>
		<g transform="matrix(1 0 0 1 -34.91 4.64)"  >
<path style="stroke: none; stroke-width: 1; stroke-dasharray: none; stroke-linecap: butt; stroke-dashoffset: 0; stroke-linejoin: miter; stroke-miterlimit: 4; fill: rgb(255,255,255); fill-rule: nonzero; opacity: 1;" vector-effect="non-scaling-stroke"  transform=" translate(-39.09, -17.64)" d="M 47.617 9.43188 L 39.3195 9.43188 L 28.0842 25.839 L 44.7659 25.839 L 50.0884 19.3128 L 40.8922 19.3128 L 47.617 9.43188 Z" stroke-linecap="round" />
</g>
		<g transform="matrix(1 0 0 1 -25.21 -9.22)"  >
<path style="stroke: none; stroke-width: 1; stroke-dasharray: none; stroke-linecap: butt; stroke-dashoffset: 0; stroke-linejoin: miter; stroke-miterlimit: 4; fill: rgb(255,255,255); fill-rule: nonzero; opacity: 1;" vector-effect="non-scaling-stroke"  transform=" translate(-48.79, -3.78)" d="M 56.5637 6.95667 L 55.4295 0.611877 L 45.3579 0.611877 L 41.0193 6.95667 L 56.5637 6.95667 Z" stroke-linecap="round" />
</g>
		<g transform="matrix(1 0 0 1 1.16 4.64)"  >
<path style="stroke: none; stroke-width: 1; stroke-dasharray: none; stroke-linecap: butt; stroke-dashoffset: 0; stroke-linejoin: miter; stroke-miterlimit: 4; fill: rgb(255,255,255); fill-rule: nonzero; opacity: 1;" vector-effect="non-scaling-stroke"  transform=" translate(-75.16, -17.64)" d="M 80.3574 9.43195 L 74.2835 16.8376 L 78.4423 16.8376 L 77.6009 19.2027 L 73.7412 19.2027 C 68.4838 19.2027 69.6862 14.4631 71.6556 9.95771 C 71.8105 9.61186 71.8772 9.43195 71.8772 9.43195 L 62.6779 9.43195 C 57.092 24.5921 66.4881 25.8391 75.647 25.8391 L 83.5339 25.8391 L 89.3289 9.43195 L 80.3574 9.43195 Z" stroke-linecap="round" />
</g>
		<g transform="matrix(1 0 0 1 -19.68 4.64)"  >
<path style="stroke: none; stroke-width: 1; stroke-dasharray: none; stroke-linecap: butt; stroke-dashoffset: 0; stroke-linejoin: miter; stroke-miterlimit: 4; fill: rgb(255,255,255); fill-rule: nonzero; opacity: 1;" vector-effect="non-scaling-stroke"  transform=" translate(-54.32, -17.64)" d="M 48.7094 9.43188 L 51.5728 25.839 L 59.94 25.839 L 57.0084 9.43188 L 48.7094 9.43188 Z" stroke-linecap="round" />
</g>
		<g transform="matrix(1 0 0 1 26.94 4.63)"  >
<path style="stroke: none; stroke-width: 1; stroke-dasharray: none; stroke-linecap: butt; stroke-dashoffset: 0; stroke-linejoin: miter; stroke-miterlimit: 4; fill: rgb(255,255,255); fill-rule: nonzero; opacity: 1;" vector-effect="non-scaling-stroke"  transform=" translate(-100.94, -17.63)" d="M 97.958 19.3129 L 98.8319 16.8314 L 107.763 16.8314 L 113.806 9.42578 L 104.481 9.42578 L 99.1619 15.9102 L 101.452 9.42733 L 92.2544 9.42733 L 86.4593 25.8345 L 113.11 25.8345 L 115.416 19.3082 L 97.958 19.3129 Z" stroke-linecap="round" />
</g>
		<g transform="matrix(1 0 0 1 7.81 0.13)"  >
<path style="stroke: none; stroke-width: 1; stroke-dasharray: none; stroke-linecap: butt; stroke-dashoffset: 0; stroke-linejoin: miter; stroke-miterlimit: 4; fill: rgb(217,9,21); fill-rule: nonzero; opacity: 1;" vector-effect="non-scaling-stroke"  transform=" translate(-81.81, -13.13)" d="M 74.285 16.836 L 80.359 9.43042 L 89.3367 9.43042 L 83.2937 16.836 L 74.285 16.836 Z" stroke-linecap="round" />
</g>
		<g transform="matrix(1 0 0 1 61 -9.21)"  >
<path style="stroke: none; stroke-width: 1; stroke-dasharray: none; stroke-linecap: butt; stroke-dashoffset: 0; stroke-linejoin: miter; stroke-miterlimit: 4; fill: rgb(255,255,255); fill-rule: nonzero; opacity: 1;" vector-effect="non-scaling-stroke"  transform=" translate(-135, -3.79)" d="M 139.803 0.611877 L 124.494 0.611877 L 122.254 6.95822 L 147.743 6.95822 C 146.364 0.670817 139.803 0.611877 139.803 0.611877 Z" stroke-linecap="round" />
</g>
		<g transform="matrix(1 0 0 1 57.71 4.63)"  >
<path style="stroke: none; stroke-width: 1; stroke-dasharray: none; stroke-linecap: butt; stroke-dashoffset: 0; stroke-linejoin: miter; stroke-miterlimit: 4; fill: rgb(255,255,255); fill-rule: nonzero; opacity: 1;" vector-effect="non-scaling-stroke"  transform=" translate(-131.71, -17.63)" d="M 148 9.43198 L 133.7 9.43198 L 128.38 15.9148 L 128.365 15.9148 L 130.706 9.42578 L 121.381 9.42578 L 115.418 25.8329 L 124.786 25.8329 L 127.361 18.6987 L 133.181 25.8329 L 143.864 25.8329 L 136.043 16.8376 L 139.368 16.8376 C 139.368 16.8376 148 16.8376 148 9.43198 Z" stroke-linecap="round" />
</g>
</g>
</g>
</svg>